<svg version="1.2" xmlns="http://www.w3.org/2000/svg" viewBox="0 0 1551 395" width="1551" height="395">
	<title>AXISBank_Logo-svg</title>
	<defs>
		<clipPath clipPathUnits="userSpaceOnUse" id="cp1">
			<path d="m-415.44-5437.6h9409.89v6535.04h-9409.89z"/>
		</clipPath>
	</defs>
	<style>
		.s0 { fill: #97144d } 
	</style>
	<g id="layer1">
		<g id="g870">
			<g id="Clip-Path: g872" clip-path="url(#cp1)">
				<g id="g872">
					<g id="g878">
						<path id="path880" class="s0" d="m454.4 394.3h-141.2l-85.8-149.6h141.2z"/>
					</g>
					<g id="g882">
						<path id="path884" class="s0" d="m226.9 0.7l70.8 121.8-156.4 271.8h-140.9z"/>
					</g>
					<g id="g914">
						<path id="path888" fill-rule="evenodd" class="s0" d="m551.8 212.3h-68.6l-17.9 32.4h-26.2l79.6-142.5 76.6 142.5h-26.5zm-9.9-19l-23.7-45.6-25 45.6zm107-18.5l-44.3-64h27.6l30.7 45.3 32.2-45.3h27.8l-46.2 64 48.5 70h-27.1l-35.5-51.3-36.8 51.3h-27.4zm122.3 70h-24.2v-133.9h24.2zm120.9-114.3l-19.7 9.8c-3.7-5.3-7.1-8.8-10.5-10.4-3.5-1.9-7.9-2.8-13.4-2.8-6.7 0-12.3 1.6-16.8 4.9q-6.6 4.6-6.6 11.7c0 6.6 5.8 11.8 17.4 15.8l16.1 5.5c13 4.3 22.5 9.8 28.6 16 6.1 6.4 9 14.2 9 23.5 0 12.2-4.9 22.5-14.8 30.4-9.8 8.2-22.2 12.3-36.9 12.3-13.9 0-25.5-3.5-34.5-10.4-9-7-14.5-16.7-16.8-29.1l24.5-4.6c1.2 8 3.1 13.3 5.9 16.3 5 5.8 12.3 8.7 21.9 8.7 7.6 0 13.8-2 18.8-6.3 5-4.2 7.4-9.6 7.4-16.1 0-2.6-0.3-5-1.4-7.1-0.7-2.2-2-4.2-3.9-6-1.7-1.7-4.2-3.6-7.1-5.1-2.9-1.7-6.4-3-10.4-4.6l-15.5-5.4c-22.1-7.7-32.9-19-32.9-34 0-10.1 4.6-18.4 13.8-25.1 9.1-6.9 20.6-10.4 34.3-10.4 18.5 0 33.1 7.5 43.5 22.5zm99.1 114.3v-134h24.2c10.8 0 19.3 0.6 25.7 2 6.4 1.4 11.9 3.8 16.3 7 4.5 3.5 8 7.7 10.7 12.9 2.8 5 4.1 10.3 4.1 15.6 0 9.6-4.5 17.7-13.3 24.3 8.6 2.5 15.3 6.7 20.2 12.8 5.1 6 7.5 12.9 7.5 21.1 0 10.3-4.4 19.2-13.3 26.5-5.3 4.4-11.3 7.6-17.9 9.2-7.4 1.7-16.4 2.6-27.4 2.6zm24.2-76.5h7.6c9 0 15.7-1.6 19.8-5 4.2-3.3 6.3-8.2 6.3-14.6 0-6.4-2.1-11.2-6.4-14.3-4.4-3.4-10.6-5.1-18.8-5.1h-8.5zm0 57.4h15c11 0 19-1.7 24.2-5.3 5.4-3.9 8.1-8.8 8.1-14.7 0-5.8-2.7-10.7-7.9-14.7-5.1-3.7-14.1-5.8-27.2-5.8h-12.2zm185.2-13.3h-68.7l-17.9 32.4h-26.2l79.4-142.6 76.8 142.6h-26.7zm-9.8-19l-23.9-45.7-25.1 45.7zm69.1 51.5v-143.3l117 102.4v-93.1h24.3v142.1l-117.1-102v93.9zm195.6-80.5l62.6-53.5h32.2l-72.5 60.7 73 73.2h-32.5l-57.8-59.6-5 4.2v55.4h-24.3v-133.9h24.3z"/>
					</g>
				</g>
			</g>
		</g>
	</g>
</svg>