<svg width="215" height="21.5" xmlns="http://www.w3.org/2000/svg">
 <title/>
 <desc/>

 <g>
  <title>background</title>
  <rect fill="none" id="canvas_background" height="23.5" width="217" y="-1" x="-1"/>
 </g>
 <g>
  <title>Layer 1</title>
  <g stroke="null" id="svg_1">
   <path stroke="null" stroke-dasharray="5,2,2,2,2,2" opacity="0.9375" id="path4510-9" fill="#265797" d="m70.188329,16.465424c-0.071334,-0.046698 0.419063,-1.927154 1.588312,-6.090485c0.93033,-3.31261 1.805281,-6.411315 1.944339,-6.886011l0.25283,-0.863086l3.655501,0.066431c4.273355,0.077661 4.931181,0.133866 5.618612,0.480067c1.218706,0.613754 1.554197,1.558086 1.134223,3.192573c-0.357696,1.392102 -1.04105,2.33952 -2.362356,3.275227c-0.250595,0.177463 -0.469509,0.394408 -0.486475,0.482103c-0.018834,0.097339 0.13733,0.311794 0.400909,0.550561c0.237467,0.215116 0.489887,0.503004 0.560932,0.639756c0.191168,0.367963 0.157973,1.105231 -0.107289,2.383034c-0.130053,0.626489 -0.260875,1.521826 -0.290714,1.989638l-0.054252,0.850564l-1.769371,0c-1.253004,0 -1.801724,-0.032202 -1.88023,-0.110344c-0.172652,-0.171853 -0.133601,-0.610227 0.166286,-1.866647c0.333736,-1.398244 0.353934,-1.946968 0.084223,-2.288262c-0.356286,-0.45085 -0.679411,-0.548338 -1.958555,-0.590909c-1.032058,-0.034348 -1.204143,-0.018905 -1.360677,0.122102c-0.243397,0.219252 -0.440966,0.785475 -1.018158,2.917989l-0.491542,1.816072l-1.761674,-0.001417c-0.968922,-0.000709 -1.808115,-0.031811 -1.864874,-0.068966l0,0l0,0.000011zm9.300361,-7.801702c0.840089,-0.248326 1.19399,-0.793708 1.195133,-1.841779c0.000373,-0.315328 -0.053277,-0.537233 -0.161151,-0.666921c-0.254999,-0.306564 -1.023061,-0.410633 -2.463733,-0.333826l-1.252362,0.066763l-0.182368,0.611325c-0.281598,0.943961 -0.479083,1.856656 -0.448256,2.07167c0.020169,0.140681 0.117764,0.212348 0.351259,0.257942c0.511499,0.099876 2.426057,-0.006908 2.961478,-0.165174l0,0l0,0z"/>
   <path stroke="null" stroke-dasharray="5,2,2,2,2,2" opacity="0.9375" id="path4512-4" fill="#265797" d="m85.413856,16.735108c-0.55952,-0.199163 -0.999415,-0.570972 -1.184245,-1.000947c-0.35135,-0.817359 -0.028294,-2.634061 1.254328,-7.053717c0.30716,-1.058408 0.558471,-1.934754 0.558471,-1.947434c0,-0.012682 0.065325,-0.088081 0.145168,-0.167554c0.118496,-0.117948 0.388973,-0.144499 1.472077,-0.144499c0.729797,0 1.430235,0.039105 1.556529,0.086902l0.229627,0.086897l-0.2291,0.809645c-0.561784,1.985377 -1.144435,4.393696 -1.24516,5.146728c-0.091489,0.683981 -0.087983,0.865805 0.021073,1.09229c0.248083,0.515223 1.148692,0.624192 1.91515,0.231723c0.899194,-0.460439 1.067861,-0.854525 2.513306,-5.872406c0.211939,-0.735744 0.373595,-1.118089 0.55401,-1.310332l0.25475,-0.271448l1.443922,0c1.116656,0 1.454616,0.027734 1.491098,0.122367c0.036136,0.093728 -1.798823,6.894028 -2.572256,9.532706l-0.121288,0.413789l-1.543665,0.045976c-0.849017,0.025287 -1.543596,0.020146 -1.543512,-0.011424c0.000086,-0.031574 0.063112,-0.235022 0.140062,-0.45211c0.312166,-0.88068 -0.077043,-0.935926 -1.213929,-0.172314c-1.123388,0.754548 -1.594369,0.933299 -2.56696,0.974241c-0.657523,0.027675 -0.945677,-0.002462 -1.329457,-0.139078l0,0l0,-0.000002z"/>
   <path stroke="null" stroke-dasharray="5,2,2,2,2,2" opacity="0.9375" id="path4514-8" fill="#265797" d="m95.677053,16.462439c-0.082091,-0.051932 0.393183,-1.876878 1.801676,-6.918061l1.913182,-6.847521l3.233062,0.026939c4.033156,0.033605 4.857772,0.104829 5.637519,0.486917c0.641143,0.314175 0.946394,0.595133 1.231787,1.133756c0.479463,0.904886 0.471461,1.954454 -0.025879,3.39468c-0.764432,2.213687 -2.191342,3.66922 -4.072267,4.153956c-0.304856,0.078564 -1.260994,0.184858 -2.124752,0.236204c-2.853543,0.169634 -2.681963,0.137705 -2.834806,0.527549c-0.073042,0.18631 -0.358091,1.135287 -0.633438,2.108841l-0.500629,1.770097l-1.756978,-0.001417c-0.966335,-0.000709 -1.80715,-0.033153 -1.868477,-0.071951l0,0.000011zm8.319297,-7.370049c0.940326,-0.120619 1.434328,-0.40932 1.74811,-1.021607c0.337176,-0.657942 0.426168,-1.37418 0.211297,-1.700597c-0.292825,-0.444838 -0.693776,-0.542026 -2.204551,-0.534364c-0.752283,0.003809 -1.404774,0.043926 -1.449984,0.08914c-0.103438,0.10345 -0.738882,2.603542 -0.738882,2.907066c0,0.123705 0.027713,0.252504 0.061589,0.286219c0.087546,0.087143 1.621848,0.07042 2.372421,-0.025856l0,0l0,0z"/>
   <path stroke="null" stroke-dasharray="5,2,2,2,2,2" opacity="0.9375" id="path4516-8" fill="#265797" d="m109.276116,16.773018c-1.087857,-0.453575 -1.369722,-1.203168 -1.015215,-2.699862c0.495565,-2.092211 1.587239,-2.791883 5.334885,-3.419223c2.262834,-0.378789 2.827738,-0.655636 2.99048,-1.465573c0.120392,-0.599174 -0.395509,-0.926789 -1.461066,-0.92783c-0.665204,-0.000707 -0.914733,0.095887 -1.491804,0.577149l-0.46506,0.387845l-1.19814,0.030576c-1.388695,0.035439 -1.816465,-0.01957 -1.816465,-0.233586c0,-0.249358 0.54464,-1.01115 1.053835,-1.474007c0.546851,-0.497084 1.270545,-0.877985 2.054122,-1.081137c1.645761,-0.426682 4.478524,-0.37708 5.45206,0.095466c0.5211,0.252936 0.984291,0.673012 1.204877,1.092725c0.208799,0.397279 0.134144,0.80952 -0.849743,4.692279c-0.482925,1.905783 -0.878043,3.62771 -0.878043,3.826506l0,0.361449l-1.141862,0c-0.628025,0 -1.333844,0.026192 -1.568487,0.058205l-0.426623,0.058203l-0.187655,-0.435756c-0.220481,-0.511978 -0.246338,-0.511825 -1.407994,0.008272c-1.26163,0.564851 -1.723936,0.690752 -2.704012,0.736392c-0.833972,0.038837 -0.977706,0.020545 -1.47809,-0.188087l0,0l0,-0.000007zm4.965229,-2.148495c0.637037,-0.280488 1.356604,-1.42844 1.360809,-2.170947l0.00203,-0.358121l-0.586979,0.054557c-0.649328,0.060356 -2.022748,0.50124 -2.526168,0.81093c-0.425043,0.261476 -0.67402,0.682707 -0.672696,1.138096c0.001247,0.436753 0.065833,0.556223 0.370369,0.685362c0.347726,0.147455 1.571034,0.05217 2.052635,-0.159878l0,0z"/>
   <path stroke="null" stroke-dasharray="5,2,2,2,2,2" opacity="0.9375" id="path4518-2" fill="#265797" d="m119.32921,20.891702c-0.370033,-0.083062 -0.384224,-0.220559 -0.126904,-1.229501c0.344838,-1.352099 0.322169,-1.323969 1.17315,-1.455658c0.918553,-0.142144 1.328709,-0.34306 1.533556,-0.751216c0.226889,-0.452082 0.21061,-2.227287 -0.064087,-6.988435c-0.152863,-2.649493 -0.190892,-3.85119 -0.124395,-3.930995c0.070061,-0.084086 0.537616,-0.114941 1.741657,-0.114941l1.645885,0l0.028748,3.075956c0.019615,2.098491 0.061386,3.108404 0.131454,3.178061c0.168141,0.167157 0.786245,-0.873275 3.319357,-5.587356l0.35823,-0.666662l1.453197,0c0.799258,0 1.472862,0.031677 1.496904,0.070389c0.046264,0.074514 -2.155729,3.981609 -4.365343,7.745623c-3.140505,5.349766 -3.731209,6.087015 -5.204457,6.495594c-0.481014,0.133402 -2.608372,0.246364 -2.996952,0.15914l0,0l0,0z"/>
   <path stroke="null" stroke-dasharray="5,2,2,2,2,2" id="path6141-55" fill="#479951" d="m132.944405,19.664683l4.31879,-15.746966l4.110934,8.137847l-8.429724,7.609119z"/>
   <path stroke="null" stroke-dasharray="5,2,2,2,2,2" id="path6141-5-1" fill="#D97B16" d="m130.27187,19.722034l4.31879,-15.746966l4.110934,8.137847l-8.429724,7.609119z"/>
   <path stroke="null" stroke-dasharray="5,2,2,2,2,2" id="tm" fill="#000000" d="m142.172133,3.623033l0,-1.073247l-0.410163,0l0,-0.187122l1.034735,0l0,0.187122l-0.413272,0l0,1.073247l-0.211299,0zm0.765953,0l0,-1.260369l0.310732,0l0.320053,1.00675l0.309176,-1.00675l0.304518,0l0,1.260369l-0.192655,0l0,-1.057784l-0.326267,1.057784l-0.191099,0l-0.340253,-1.073247l0,1.073247l-0.194206,0z"/>
   <path stroke="#000000" stroke-dasharray="5,2,2,2,2,2" stroke-width="0.5" opacity="0.9375" id="circle" d="m144.818439,2.969829c0,0.965894 -0.786653,1.748908 -1.757038,1.748908c-0.970385,0 -1.757038,-0.783013 -1.757038,-1.748908c0,-0.965894 0.786653,-1.748905 1.757038,-1.748905c0.970385,0 1.757038,0.783011 1.757038,1.748905l0,0z"/>
  </g>
 </g>
</svg>