<svg xmlns="http://www.w3.org/2000/svg" xmlns:svg="http://www.w3.org/2000/svg" viewBox="1.13 62.77 166.3 45.3">
 <g class="layer">
  <title>Layer 1</title>
  <g id="SVGRepo_bgCarrier" stroke-width="0"/>
  <g id="SVGRepo_tracerCarrier" stroke="#CCCCCC" stroke-linecap="round" stroke-linejoin="round" stroke-width="1.41732"/>
  <g id="SVGRepo_iconCarrier">
   <g fill="#2566af" id="svg_1">
    <path d="m73.22135,107.31984l-13.56983,0l8.48097,-43.76693l13.57122,0l-8.48236,43.76693zm-24.9856,-43.76693l-12.93686,30.10323l-1.53084,-6.48239l0.00139,0.00234l-4.56603,-19.68248s-0.55211,-3.94071 -6.43706,-3.94071l-21.38715,0l-0.25096,0.74108s6.54023,1.14264 14.19443,5.00257l11.78942,38.02446l14.13866,0l21.58931,-43.7681l-14.60433,0l0.00002,0zm106.73359,43.76693l12.46004,0l-10.86367,-43.7681l-10.90828,0c-5.03727,0 -6.26418,3.26168 -6.26418,3.26168l-20.23832,40.50642l14.14563,0l2.82885,-6.50112l17.25054,0l1.5894,6.50112l-0.00001,0zm-14.93197,-15.48186l7.12998,-16.37865l4.01114,16.37865l-11.14112,0zm-19.82146,-17.76012l1.93655,-9.3987s-5.97558,-1.90831 -12.2049,-1.90831c-6.73402,0 -22.72559,2.47143 -22.72559,14.48907c0,11.307 18.76883,11.44749 18.76883,17.38666s-16.83506,4.87496 -22.39098,1.12976l-2.01742,9.82719s6.05923,2.47143 15.31677,2.47143c9.26033,0 23.23029,-4.02617 23.23029,-14.9843c0,-11.37959 -18.93753,-12.43911 -18.93753,-17.38666c0.00139,-4.94872 13.21709,-4.31301 19.02397,-1.62616l0.00001,0.00002z" id="svg_2"/>
   </g>
   <path d="m33.76944,87.17492l-4.56603,-19.68248s-0.55211,-3.94071 -6.43706,-3.94071l-21.38715,0l-0.25096,0.74108s10.2795,1.78889 20.13933,8.49138c9.42763,6.40629 12.50186,14.39073 12.50186,14.39073l0.00001,0z" fill="#e6a540" id="svg_3"/>
   <path d="m-14.52313,2.45552l197.60389,0l0,165.93128l-197.60389,0l0,-165.93128z" fill="none" id="svg_4"/>
  </g>
 </g>

</svg>